<?xml version="1.0" standalone="no"?>
<!DOCTYPE svg PUBLIC "-//W3C//DTD SVG 20010904//EN"
 "http://www.w3.org/TR/2001/REC-SVG-20010904/DTD/svg10.dtd">
<svg version="1.0" xmlns="http://www.w3.org/2000/svg"
 width="512.000000pt" height="512.000000pt" viewBox="0 0 512.000000 512.000000"
 preserveAspectRatio="xMidYMid meet">
<metadata>
Created by potrace 1.14, written by Peter Selinger 2001-2017
</metadata>
<g transform="translate(0.000000,512.000000) scale(0.100000,-0.100000)"
fill="#000000" stroke="none">
<path d="M0 3980 l0 -1140 209 0 c164 0 210 3 214 13 4 12 10 380 9 602 -2
681 0 969 6 1012 16 94 89 163 174 163 26 0 57 4 70 8 13 5 38 5 58 -1 20 -5
29 -11 20 -14 -8 -2 -24 -8 -35 -13 -11 -5 -51 -11 -90 -15 -76 -6 -109 -23
-137 -71 -14 -25 -18 -73 -23 -319 -8 -347 -13 -1311 -7 -1342 4 -23 6 -23
169 -23 181 0 217 -9 229 -57 4 -14 2 -123 -5 -242 -17 -322 -15 -624 5 -691
19 -64 26 -56 44 50 10 61 18 80 42 102 17 16 41 31 54 34 28 7 29 9 8 65 -31
88 -33 327 -4 448 29 120 219 371 337 444 35 22 44 35 58 84 24 82 43 178 49
248 3 33 7 78 11 100 3 22 7 58 10 80 6 56 12 85 30 135 8 23 15 50 15 59 0 9
18 34 39 54 32 30 42 49 50 92 6 30 16 80 22 110 9 48 16 59 62 97 29 23 54
46 57 49 3 3 31 21 63 39 32 18 68 46 80 61 11 16 28 31 37 34 9 3 64 -2 122
-10 94 -13 120 -13 224 0 128 16 149 12 174 -35 6 -11 29 -29 52 -41 23 -12
74 -46 114 -76 74 -56 81 -66 113 -173 6 -20 29 -65 50 -102 23 -39 42 -86 46
-115 6 -50 14 -285 15 -478 1 -165 31 -295 103 -452 23 -52 -21 -159 -93 -227
-60 -56 -89 -62 -33 -7 57 57 77 103 77 181 0 54 -6 78 -36 140 -20 41 -42
102 -48 135 -7 33 -16 206 -20 385 -4 179 -12 339 -18 356 -5 18 -35 84 -66
147 -48 99 -61 117 -88 126 -65 23 -113 7 -166 -53 -17 -20 -34 -36 -37 -36
-12 0 26 59 60 93 31 31 44 37 80 37 24 0 47 -4 50 -10 3 -5 14 -10 23 -10 23
1 -23 39 -103 86 -33 20 -80 52 -103 72 l-44 35 -98 -13 c-92 -12 -185 -10
-296 6 -37 6 -45 3 -80 -28 -22 -19 -60 -47 -86 -62 -51 -30 -138 -103 -138
-117 0 -4 17 3 38 17 72 50 177 19 221 -66 24 -47 21 -50 -15 -12 -54 53 -87
72 -128 72 -64 0 -99 -28 -123 -96 -11 -33 -42 -108 -68 -169 -65 -152 -73
-182 -85 -309 -10 -100 -20 -176 -36 -261 -3 -16 -21 -86 -41 -155 -45 -155
-49 -240 -14 -345 21 -63 33 -79 107 -152 46 -45 84 -85 84 -88 0 -3 44 -48
97 -100 53 -52 92 -95 85 -95 -14 0 -192 174 -192 188 0 5 -25 29 -56 52 -78
59 -109 95 -147 170 -31 64 -32 68 -32 201 l0 137 -73 -72 c-166 -162 -231
-266 -257 -410 -30 -173 -16 -347 39 -470 14 -33 24 -61 21 -64 -3 -3 -18 9
-33 27 l-27 32 -31 -23 c-39 -28 -74 -78 -74 -106 0 -14 18 -35 55 -62 52 -38
121 -118 111 -127 -3 -3 -22 14 -43 38 -37 41 -103 89 -123 89 -5 0 -10 -20
-10 -45 0 -38 -3 -45 -20 -45 -11 0 -20 -5 -20 -11 0 -8 -14 -10 -40 -6 -33 4
-40 2 -46 -15 -3 -11 -3 -34 0 -52 l6 -33 1090 4 1091 4 30 -25 31 -26 222 0
222 0 159 -76 c88 -42 250 -118 360 -169 214 -99 429 -205 424 -209 -2 -1
-456 1 -1009 5 -553 4 -1374 8 -1825 8 -630 1 -826 4 -844 14 -38 19 -60 66
-62 133 -2 64 18 487 26 544 3 19 9 130 15 245 13 264 19 374 26 451 5 56 2
67 -26 117 -18 33 -40 57 -53 61 -12 3 -172 6 -354 6 l-333 0 0 -769 0 -769
57 -7 c85 -10 404 -73 432 -85 39 -17 16 -23 -41 -10 -59 13 -429 80 -440 80
-5 0 -8 -259 -8 -575 l0 -575 2560 0 2560 0 0 2560 0 2560 -2560 0 -2560 0 0
-1140z m3622 655 c80 -6 102 -11 129 -31 42 -31 69 -72 69 -106 0 -15 4 -38
10 -53 7 -17 7 -24 0 -20 -6 3 -11 -1 -11 -9 -1 -9 -3 -20 -4 -26 -1 -5 -3
-15 -4 -22 -2 -25 -10 0 -16 57 -14 130 -54 167 -188 177 -126 10 -178 18
-171 29 3 5 9 7 14 4 5 -3 11 -1 14 4 4 5 18 8 34 6 15 -2 71 -7 124 -10z
m-1738 -896 c30 -14 51 -60 42 -94 -7 -27 -52 -55 -90 -55 -31 0 -86 46 -86
72 0 26 62 88 89 88 11 0 31 -5 45 -11z m701 -6 c28 -28 37 -64 24 -95 -21
-51 -79 -63 -136 -28 -37 22 -42 47 -16 90 28 48 96 66 128 33z m-188 -306
c16 -67 40 -130 70 -185 51 -94 51 -119 6 -222 -42 -96 -92 -131 -180 -129
l-48 1 47 8 c91 16 138 64 173 181 l19 62 -24 41 c-13 22 -42 77 -63 121 -36
72 -41 89 -44 170 -5 112 8 98 44 -48z m285 91 c17 -56 16 -294 -1 -373 -7
-33 -22 -76 -32 -95 l-18 -35 4 30 c3 17 12 73 21 125 22 132 21 290 -2 373
-3 9 -1 17 5 17 6 0 16 -19 23 -42z m-1034 -43 c-9 -73 -4 -214 12 -300 5 -27
12 -72 15 -100 l5 -50 -15 34 c-34 73 -48 155 -49 286 -1 104 3 138 17 169 9
22 19 37 21 35 2 -2 -1 -35 -6 -74z m395 -55 c-3 -19 -32 -90 -65 -158 l-61
-123 17 -57 c29 -94 62 -141 113 -164 33 -15 57 -18 85 -14 26 4 37 3 33 -4
-3 -5 -29 -10 -57 -10 -64 0 -124 33 -161 89 -25 38 -67 146 -67 174 0 8 17
40 38 73 51 80 57 96 77 199 10 50 23 99 29 110 9 17 11 13 17 -30 3 -27 4
-66 2 -85z m313 -232 c22 -22 29 -59 24 -128 -1 -24 -2 -24 -10 -4 -18 45
-163 69 -252 42 -22 -6 -48 -23 -59 -36 -23 -30 -29 -26 -36 27 -7 53 2 88 30
106 33 21 121 31 206 23 59 -5 79 -12 97 -30z m726 -95 c29 -34 40 -65 64
-191 44 -229 98 -372 206 -547 72 -116 148 -196 223 -238 l60 -33 3 -182 2
-182 -102 -2 c-57 -1 -183 -2 -281 -4 l-179 -2 -19 32 c-17 28 -19 52 -19 241
0 244 -11 382 -47 590 -36 209 -34 304 6 419 41 118 53 133 83 99z m-721 -91
c-10 -19 -37 -44 -61 -57 -8 -5 3 10 25 32 46 47 49 50 36 25z m-281 -20 c0
-5 15 -16 33 -25 l32 -18 -30 7 c-32 6 -55 21 -55 35 0 5 5 9 10 9 6 0 10 -4
10 -8z m-4 -532 c8 0 11 -6 7 -16 -6 -15 -7 -15 -19 1 -8 11 -20 15 -31 11
-15 -5 -15 -4 2 9 12 10 21 12 23 5 2 -5 10 -10 18 -10z m51 -5 c-15 -16 -19
-13 -11 9 3 9 10 13 15 10 5 -3 3 -11 -4 -19z m613 11 c0 -3 -4 -8 -10 -11 -5
-3 -10 -1 -10 4 0 6 5 11 10 11 6 0 10 -2 10 -4z m-817 -25 c4 -15 11 -18 28
-14 13 4 27 11 32 17 5 8 9 8 15 0 4 -6 25 -15 47 -19 53 -11 57 -12 75 -14
28 -3 42 -18 44 -49 2 -27 -1 -31 -31 -37 -43 -8 -56 1 -48 34 5 23 1 31 -19
44 -31 21 -85 13 -81 -12 2 -9 4 -20 4 -24 1 -5 16 -6 34 -2 l32 6 -24 -19
c-27 -22 -79 -15 -72 9 2 8 6 22 9 33 9 32 -21 13 -40 -25 -11 -21 -18 -27
-18 -16 0 10 4 26 10 36 7 14 5 23 -10 36 -23 21 -26 35 -6 35 7 0 16 -9 19
-19z m300 -6 c-7 -21 -13 -19 -13 6 0 11 4 18 10 14 5 -3 7 -12 3 -20z m57
-44 c0 -6 -4 -13 -10 -16 -5 -3 -10 1 -10 9 0 9 5 16 10 16 6 0 10 -4 10 -9z
m-70 -51 c0 -5 -5 -10 -11 -10 -5 0 -7 5 -4 10 3 6 8 10 11 10 2 0 4 -4 4 -10z
m-201 -40 c11 0 21 7 25 15 7 18 36 9 36 -12 0 -8 -4 -12 -9 -9 -5 3 -14 -1
-21 -9 -7 -8 -18 -15 -25 -15 -25 0 -24 -29 2 -50 14 -11 31 -20 37 -21 6 0
21 -2 34 -5 13 -2 48 0 78 4 51 9 54 8 48 -11 -4 -13 -2 -17 5 -13 6 4 11 4
11 -1 0 -4 -19 -21 -41 -37 -40 -28 -92 -36 -137 -21 -27 9 -112 144 -112 179
0 23 33 38 43 20 4 -8 16 -14 26 -14z m139 -29 c-9 -15 -15 -17 -30 -8 -26 17
-22 27 12 27 27 0 29 -2 18 -19z m132 14 c0 -3 -9 -15 -20 -27 -20 -22 -26
-15 -14 16 6 15 34 23 34 11z m-220 -20 c0 -8 9 -15 20 -15 26 0 26 -16 1 -23
-22 -5 -51 21 -44 41 6 17 23 15 23 -3z m-210 -57 c0 -13 -23 -5 -28 10 -2 7
2 10 12 6 9 -3 16 -11 16 -16z m41 -35 l24 -27 -24 15 c-14 9 -27 21 -29 27
-6 19 3 14 29 -15z m59 -38 c7 -8 8 -15 2 -15 -5 0 -15 7 -22 15 -7 8 -8 15
-2 15 5 0 15 -7 22 -15z m40 -35 c0 -5 -2 -10 -4 -10 -3 0 -8 5 -11 10 -3 6
-1 10 4 10 6 0 11 -4 11 -10z"/>
<path d="M32 2802 c-26 -3 -32 -7 -32 -28 l0 -24 394 0 c255 0 397 4 401 10 3
6 3 19 0 31 -7 20 -10 21 -368 17 -199 -2 -377 -4 -395 -6z"/>
<path d="M741 2707 c-6 -8 -8 -17 -4 -20 11 -12 19 -7 20 13 2 24 -1 25 -16 7z"/>
<path d="M820 1555 c0 -16 9 -19 34 -9 25 9 19 24 -9 24 -16 0 -25 -6 -25 -15z"/>
<path d="M800 1439 c-7 -11 -9 -37 -6 -57 4 -20 2 -51 -2 -67 -14 -47 6 -97
48 -118 33 -16 100 -17 1039 -15 659 2 1005 6 1007 13 2 6 -79 50 -179 100
-100 49 -213 106 -250 127 l-69 38 -789 0 c-788 0 -788 0 -799 -21z m975 -79
c3 -5 1 -10 -4 -10 -6 0 -11 5 -11 10 0 6 2 10 4 10 3 0 8 -4 11 -10z m53 -14
c-2 -1 -11 -7 -20 -15 -15 -11 -17 -10 -15 7 1 13 7 18 19 14 11 -2 17 -5 16
-6z m696 1 c16 -12 17 -15 3 -20 -8 -3 -23 3 -33 14 -14 15 -14 19 -2 19 8 0
22 -6 32 -13z m-569 -17 c3 -5 -1 -10 -9 -10 -9 0 -16 5 -16 10 0 6 4 10 9 10
6 0 13 -4 16 -10z m514 -4 c10 -12 8 -13 -8 -9 -12 3 -21 9 -21 14 0 14 16 11
29 -5z m-479 -27 c0 -5 -4 -9 -10 -9 -5 0 -10 7 -10 16 0 8 5 12 10 9 6 -3 10
-10 10 -16z m35 -17 c-3 -3 -11 0 -18 7 -9 10 -8 11 6 5 10 -3 15 -9 12 -12z
m495 -27 c0 -8 -9 -19 -20 -25 -21 -11 -25 -4 -14 24 8 20 34 21 34 1z m-545
-5 c18 -8 17 -9 -7 -9 -16 -1 -28 4 -28 9 0 12 8 12 35 0z m311 0 c9 0 12 -4
9 -10 -8 -13 -62 -13 -69 -1 -7 11 14 21 32 15 8 -2 20 -4 28 -4z m444 -15
l25 -14 -31 -1 c-17 0 -37 7 -44 15 -10 12 -9 15 6 15 11 -1 30 -7 44 -15z
m-173 -1 c-3 -3 -12 -4 -19 -1 -8 3 -5 6 6 6 11 1 17 -2 13 -5z"/>
</g>
</svg>
